HIERARCHY
ROOT Hips
{
	OFFSET 0.0000 0.0000 0.0000
	CHANNELS 6 Xposition Yposition Zposition Zrotation Xrotation Yrotation
	JOINT Ab
	{
		OFFSET -0.0000 8.1305 -0.0000
		CHANNELS 3 Zrotation Xrotation Yrotation
		JOINT Chest
		{
			OFFSET -0.0000 26.2902 -0.0000
			CHANNELS 3 Zrotation Xrotation Yrotation
			JOINT Neck
			{
				OFFSET -0.0000 26.2902 0.0000
				CHANNELS 3 Zrotation Xrotation Yrotation
				JOINT Head
				{
					OFFSET -0.0000 10.8167 0.0000
					CHANNELS 3 Zrotation Xrotation Yrotation
					End Site
					{
						OFFSET -0.0000 16.7167 0.0000
					}
				}
			}
			JOINT LeftCollar
			{
				OFFSET -0.0000 26.2902 0.0000
				CHANNELS 3 Zrotation Xrotation Yrotation
				JOINT LeftShoulder
				{
					OFFSET 19.6667 -0.0000 0.0000
					CHANNELS 3 Zrotation Xrotation Yrotation
					JOINT LeftElbow
					{
						OFFSET 27.2190 0.0000 0.0000
						CHANNELS 3 Zrotation Xrotation Yrotation
						JOINT LeftWrist
						{
							OFFSET 30.7431 0.0000 0.0000
							CHANNELS 3 Zrotation Xrotation Yrotation
							End Site
							{
								OFFSET 0.0000 -14.7500 0.0000
							}
						}
					}
				}
			}
			JOINT RightCollar
			{
				OFFSET -0.0000 26.2902 0.0000
				CHANNELS 3 Zrotation Xrotation Yrotation
				JOINT RightShoulder
				{
					OFFSET -19.6667 0.0000 0.0000
					CHANNELS 3 Zrotation Xrotation Yrotation
					JOINT RightElbow
					{
						OFFSET -27.2190 0.0000 0.0000
						CHANNELS 3 Zrotation Xrotation Yrotation
						JOINT RightWrist
						{
							OFFSET -30.7431 0.0000 0.0000
							CHANNELS 3 Zrotation Xrotation Yrotation
							End Site
							{
								OFFSET -0.0000 -14.7500 0.0000
							}
						}
					}
				}
			}
		}
	}
	JOINT LeftHip
	{
		OFFSET 11.8000 0.0000 0.0000
		CHANNELS 3 Zrotation Xrotation Yrotation
		JOINT LeftKnee
		{
			OFFSET -0.0000 -39.7832 0.0000
			CHANNELS 3 Zrotation Xrotation Yrotation
			JOINT LeftAnkle
			{
				OFFSET -0.0000 -41.7317 0.0000
				CHANNELS 3 Zrotation Xrotation Yrotation
				End Site
				{
					OFFSET -0.0000 -4.9167 16.7167
				}
			}
		}
	}
	JOINT RightHip
	{
		OFFSET -11.8000 0.0000 0.0000
		CHANNELS 3 Zrotation Xrotation Yrotation
		JOINT RightKnee
		{
			OFFSET -0.0000 -39.7832 0.0000
			CHANNELS 3 Zrotation Xrotation Yrotation
			JOINT RightAnkle
			{
				OFFSET -0.0000 -41.7317 0.0000
				CHANNELS 3 Zrotation Xrotation Yrotation
				End Site
				{
					OFFSET -0.0000 -4.9167 16.7167
				}
			}
		}
	}
}
MOTION
Frames: 14
Frame Time: 0.010000
-18.8128 97.1721 176.2261 357.7599 357.3618 178.2797 357.6898 347.7355 359.9193 1.4346 8.6473 0.0792 1.1324 358.2859 1.6419 352.6150 3.2386 1.8323 339.0688 357.2764 14.6657 317.1173 56.7383 341.1889 9.3925 357.4448 329.3277 86.1062 357.3975 346.5069 27.6032 355.9004 343.4651 48.0327 42.9323 0.9732 340.9022 354.7403 30.6389 271.1327 354.5793 11.6884 356.1544 3.6140 358.2783 358.1732 5.9513 7.3455 354.3725 351.8008 13.3421 357.4420 6.7841 10.6823 5.9843 4.3899 10.5020 347.7879 345.9646 311.7357 
-18.8184 97.1705 176.2183 357.7549 357.3486 178.2842 357.6961 347.7303 359.9466 1.4478 8.6568 0.0511 1.0584 358.2925 1.6704 352.6805 3.2223 1.8606 339.0647 357.2728 14.7166 317.0920 56.7381 341.1868 9.3800 357.4243 329.3285 86.1678 357.4085 346.5190 27.6067 355.9209 343.4920 47.9772 42.9453 0.9908 340.9664 354.7434 30.6246 271.1170 354.6317 11.7452 356.1471 3.5832 358.2548 358.1616 5.9967 7.3579 354.4538 351.7828 13.3305 357.4318 6.7826 10.6916 5.9828 4.3792 10.5063 347.7430 346.0027 311.7342 
-18.8243 97.1689 176.2115 357.7567 357.3375 178.2959 357.6985 347.7298 359.9249 1.4458 8.6702 0.0662 1.1449 358.2599 1.6531 352.5819 3.2536 1.8451 339.0784 357.2757 14.6949 317.0839 56.7564 341.1768 9.3770 357.4172 329.3310 86.1655 357.4182 346.5172 27.6064 355.9091 343.4643 47.9762 42.9235 1.0103 340.9207 354.7363 30.6176 271.2621 354.6934 11.8812 356.1509 3.5504 358.2279 358.1437 6.0524 7.3466 354.4090 351.7048 13.4546 357.4306 6.7849 10.6982 5.9851 4.3643 10.4825 347.7253 346.0170 311.7409 
-18.8305 97.1672 176.2025 357.7543 357.3273 178.3093 357.6965 347.7320 359.9344 1.4558 8.6751 0.0533 1.1155 358.2311 1.6553 352.5985 3.2856 1.8490 339.0775 357.2827 14.7097 317.0749 56.7552 341.1713 9.3780 357.4236 329.3341 86.1112 357.4167 346.5013 27.6031 355.9169 343.4823 47.9808 42.9008 0.9931 340.9391 354.7396 30.6217 271.2582 354.6781 11.9135 356.1488 3.5110 358.1954 358.1319 6.1232 7.3189 354.3861 351.6211 13.5413 357.4238 6.7918 10.7152 5.9885 4.3473 10.4736 347.7368 346.0088 311.7212 
-18.8356 97.1639 176.1954 357.7549 357.3090 178.3180 357.6937 347.7271 359.9228 1.4618 8.6844 0.0667 1.1745 358.2209 1.6430 352.5379 3.2828 1.8371 339.0881 357.2716 14.6928 317.0464 56.7730 341.1877 9.4199 357.4072 329.3396 86.0893 357.4067 346.5250 27.6028 355.9267 343.4709 47.9789 42.8805 1.0010 340.9411 354.7394 30.6304 271.4028 354.6315 11.7360 356.1520 3.4549 358.1822 358.1183 6.2085 7.2778 354.4026 351.5576 13.5817 357.4219 6.7865 10.7343 5.9902 4.3328 10.4498 347.7623 345.9827 311.7135 
-18.8434 97.1605 176.1884 357.7578 357.2917 178.3224 357.6190 347.8276 359.9801 1.5968 8.4965 0.1071 1.0321 358.2895 1.6680 352.7903 3.2678 1.8570 339.0161 357.2705 14.6689 316.9410 56.8128 341.3728 9.3557 357.4169 329.3277 86.1079 357.4103 346.4760 27.5507 355.9198 343.4203 48.0148 42.9312 0.9276 340.8677 354.7222 30.6401 271.5690 354.4740 11.0934 356.1552 3.4039 358.1591 358.1023 6.2957 7.2453 354.4050 351.4980 13.6113 357.4205 6.7794 10.7163 5.9897 4.3245 10.4495 347.7659 345.9814 311.7275 
-18.8514 97.1589 176.1792 357.7577 357.2747 178.3316 357.6026 347.8473 359.9873 1.6071 8.4677 0.1178 1.0665 358.2447 1.6187 352.7993 3.3242 1.8092 339.0180 357.2728 14.6080 316.9829 56.8697 341.3508 9.3953 357.4153 329.3406 86.0035 357.3881 346.4495 27.5367 355.8876 343.3368 48.0646 42.9409 0.9108 340.8535 354.7142 30.6227 271.5458 354.4808 11.0644 356.1546 3.3580 358.1269 358.0874 6.3697 7.2343 354.4345 351.4429 13.6271 357.4166 6.7771 10.7181 5.9928 4.3128 10.4199 347.7744 345.9701 311.7340 
-18.8587 97.1552 176.1682 357.7673 357.2622 178.3352 357.6091 347.8476 359.9946 1.6228 8.4840 0.1213 1.0600 358.2126 1.6122 352.8061 3.3491 1.8057 339.0133 357.2961 14.5976 316.9503 56.8329 341.3844 9.3586 357.4080 329.3090 86.0692 357.4151 346.4220 27.5204 355.8920 343.3406 48.0827 42.9450 0.8899 340.8863 354.7256 30.6306 271.5226 354.4697 11.0931 356.1618 3.3139 358.1034 358.0675 6.4460 7.2285 354.4342 351.3844 13.6529 357.4201 6.7761 10.7355 5.9926 4.3027 10.4082 347.7753 345.9700 311.7307 
-18.8682 97.1526 176.1541 357.7663 357.2551 178.3236 357.6178 347.8535 0.0039 1.6225 8.4937 0.1305 1.0721 358.1973 1.6077 352.7907 3.3656 1.8013 339.0215 357.2828 14.6007 316.9416 56.8591 341.3812 9.4215 357.4019 329.3171 85.9936 357.4034 346.4540 27.5157 355.8933 343.3430 48.0904 42.9609 0.8813 340.8857 354.7326 30.6351 271.4767 354.4635 11.0821 356.1535 3.2764 358.1054 358.0632 6.5220 7.2088 354.4356 351.3214 13.6783 357.4072 6.7790 10.7966 6.0047 4.2906 10.3595 347.7712 345.9560 311.7242 
-18.8789 97.1513 176.1339 357.7650 357.2522 178.3119 357.6315 347.8488 0.0103 1.6169 8.5206 0.1355 1.0780 358.1922 1.6110 352.7849 3.3627 1.8048 339.0198 357.2931 14.5923 316.9209 56.8255 341.4144 9.3898 357.4144 329.3038 85.9893 357.3973 346.4115 27.5108 355.8823 343.3495 48.0904 42.9978 0.8806 340.8725 354.7337 30.6301 271.4701 354.4714 11.0703 356.1456 3.2617 358.0814 358.0483 6.5738 7.1837 354.4756 351.2729 13.7405 357.3924 6.7903 10.8569 6.0175 4.2786 10.3224 347.7599 345.9452 311.7050 
-18.8886 97.1492 176.1147 357.7689 357.2411 178.2993 357.6456 347.8423 0.0152 1.6192 8.5423 0.1428 1.0779 358.1814 1.6144 352.7820 3.3654 1.8087 339.0211 357.2870 14.5907 316.9028 56.8162 341.4336 9.4015 357.4123 329.2967 85.9902 357.3860 346.4306 27.5114 355.8913 343.3474 48.0671 43.0086 0.8951 340.9187 354.7284 30.6385 271.4276 354.4940 11.0920 356.1432 3.2267 358.0481 358.0359 6.6568 7.1757 354.4869 351.2079 13.7777 357.3866 6.7886 10.8766 6.0199 4.2815 10.3071 347.7548 345.9415 311.7205 
-18.9027 97.1455 176.0966 357.7663 357.2236 178.2890 357.6576 347.8345 0.0226 1.6203 8.5578 0.1471 1.0540 358.1692 1.6164 352.7985 3.3788 1.8110 339.0272 357.2940 14.5984 316.8621 56.7945 341.4588 9.3904 357.4266 329.2937 86.0161 357.3863 346.4709 27.5102 355.8986 343.3520 48.0453 43.0267 0.9186 340.9181 354.7352 30.6245 271.3728 354.4965 11.2098 356.1285 3.1839 358.0118 358.0224 6.7311 7.1900 354.5424 351.1623 13.8246 357.3688 6.7758 10.8755 6.0269 4.2931 10.3256 347.7675 345.9172 311.7177 
-18.9177 97.1435 176.0741 357.7562 357.2111 178.2745 357.6658 347.8286 0.0316 1.6109 8.5670 0.1496 1.0440 358.1769 1.6220 352.8168 3.3816 1.8178 339.0343 357.2809 14.6142 316.8588 56.8078 341.4554 9.4136 357.4005 329.3046 85.9371 357.3967 346.4394 27.5961 355.9114 343.4953 48.0056 42.7629 0.7470 341.1091 354.7917 30.7222 270.9976 354.6090 11.8586 356.1051 3.1531 357.9672 358.0141 6.8030 7.1724 354.5176 351.0820 13.8819 357.3449 6.7687 10.8805 6.0326 4.3106 10.3469 347.7779 345.8771 311.6914 
-18.9303 97.1398 176.0364 357.7600 357.2179 178.2674 357.6830 347.8149 0.0382 1.6061 8.6071 0.1497 1.0465 358.1894 1.6283 352.8124 3.3768 1.8236 339.0407 357.2751 14.6023 316.7953 56.7697 341.5319 9.3939 357.4276 329.2918 85.9201 357.3949 346.4144 27.5880 355.9058 343.5010 48.0244 42.7713 0.7621 341.0632 354.7587 30.6970 271.0407 354.5877 11.8495 356.1019 3.1508 357.9099 357.9938 6.8712 7.1995 354.5532 351.0160 13.9095 357.3393 6.8021 10.9003 6.0313 4.3055 10.3240 347.7928 345.8447 311.6978 
